<svg width="29" height="29" fill="#FC2204" viewBox="0 0 29 29" xmlns="http://www.w3.org/2000/svg">
<g clip-path="url(#clip0_2761_18)">
<path d="M26.1035 4.38867H3.35353C1.90601 4.38867 0.728516 5.56617 0.728516 7.01369V22.7637C0.728516 24.2112 1.90601 25.3887 3.35353 25.3887H26.1035C27.551 25.3887 28.7285 24.2112 28.7285 22.7637V7.01369C28.7285 5.56617 27.551 4.38867 26.1035 4.38867V4.38867ZM26.1035 6.13866C26.2224 6.13866 26.3355 6.16333 26.4389 6.20641L14.7285 16.3558L3.0181 6.20641C3.1215 6.16339 3.23459 6.13866 3.35348 6.13866H26.1035ZM26.1035 23.6387H3.35353C2.87075 23.6387 2.47851 23.2465 2.47851 22.7636V8.05529L14.1551 18.175C14.3201 18.3177 14.5243 18.3887 14.7285 18.3887C14.9327 18.3887 15.137 18.3178 15.3019 18.175L26.9785 8.05529V22.7637C26.9785 23.2465 26.5863 23.6387 26.1035 23.6387V23.6387Z" />
</g>
<defs>
<clipPath id="clip0_2761_18">
<rect width="28" height="28" fill="#FC2204" transform="translate(0.728516 0.888672)"/>
</clipPath>
</defs>
</svg>
