<svg width="24" height="24" viewBox="0 0 24 24" fill="none" xmlns="http://www.w3.org/2000/svg">
<g clip-path="url(#clip0_1260_30596)">
<path d="M23.7056 7.15073C23.6518 5.92866 23.4541 5.08849 23.171 4.36047C22.879 3.5877 22.4297 2.89584 21.841 2.32069C21.2659 1.73659 20.5695 1.28272 19.8056 0.995236C19.0734 0.712137 18.2376 0.514513 17.0155 0.460631C15.7843 0.402186 15.3935 0.388672 12.2708 0.388672C9.14812 0.388672 8.75726 0.402186 7.53062 0.456068C6.30854 0.50995 5.46837 0.70775 4.74053 0.990672C3.96758 1.28272 3.27572 1.73203 2.70057 2.32069C2.11647 2.89584 1.66278 3.59226 1.37512 4.35608C1.09202 5.08849 0.894396 5.92409 0.840514 7.14617C0.782069 8.37738 0.768555 8.76824 0.768555 11.8909C0.768555 15.0136 0.782069 15.4045 0.835951 16.6311C0.889832 17.8532 1.08763 18.6933 1.37073 19.4214C1.66278 20.1941 2.11647 20.886 2.70057 21.4611C3.27572 22.0452 3.97214 22.4991 4.73597 22.7866C5.46837 23.0697 6.30397 23.2673 7.52623 23.3212C8.75269 23.3753 9.14373 23.3886 12.2664 23.3886C15.3891 23.3886 15.78 23.3753 17.0066 23.3212C18.2287 23.2673 19.0688 23.0697 19.7967 22.7866C21.3424 22.189 22.5645 20.9669 23.1621 19.4214C23.445 18.689 23.6428 17.8532 23.6967 16.6311C23.7506 15.4045 23.7641 15.0136 23.7641 11.8909C23.7641 8.76824 23.7595 8.37738 23.7056 7.15073ZM21.6344 16.5412C21.585 17.6645 21.3963 18.2711 21.239 18.6754C20.8526 19.6774 20.0573 20.4727 19.0553 20.8591C18.6509 21.0164 18.04 21.2051 16.9211 21.2544C15.708 21.3085 15.3442 21.3218 12.2754 21.3218C9.20656 21.3218 8.83817 21.3085 7.62943 21.2544C6.50616 21.2051 5.8996 21.0164 5.49522 20.8591C4.9966 20.6749 4.54273 20.3828 4.17433 20.0009C3.79242 19.6279 3.50037 19.1786 3.31609 18.68C3.15883 18.2756 2.97016 17.6645 2.92084 16.5458C2.86678 15.3327 2.85344 14.9687 2.85344 11.8999C2.85344 8.83107 2.86678 8.46267 2.92084 7.25411C2.97016 6.13084 3.15883 5.52428 3.31609 5.1199C3.50037 4.6211 3.79242 4.16741 4.1789 3.79884C4.55168 3.41693 5.00099 3.12488 5.49979 2.94077C5.90416 2.78351 6.51529 2.59484 7.63399 2.54534C8.84712 2.49146 9.21113 2.47795 12.2797 2.47795C15.3531 2.47795 15.7169 2.49146 16.9257 2.54534C18.049 2.59484 18.6555 2.78351 19.0599 2.94077C19.5585 3.12488 20.0124 3.41693 20.3808 3.79884C20.7627 4.1718 21.0547 4.6211 21.239 5.1199C21.3963 5.52428 21.585 6.13523 21.6344 7.25411C21.6883 8.46724 21.7018 8.83107 21.7018 11.8999C21.7018 14.9687 21.6883 15.3281 21.6344 16.5412Z" fill="#FC2204"/>
<path d="M12.2717 5.98242C9.0098 5.98242 6.36328 8.62877 6.36328 11.8908C6.36328 15.1528 9.0098 17.7992 12.2717 17.7992C15.5337 17.7992 18.18 15.1528 18.18 11.8908C18.18 8.62877 15.5337 5.98242 12.2717 5.98242ZM12.2717 15.7234C10.1555 15.7234 8.43904 14.0071 8.43904 11.8908C8.43904 9.7745 10.1555 8.05818 12.2717 8.05818C14.388 8.05818 16.1043 9.7745 16.1043 11.8908C16.1043 14.0071 14.388 15.7234 12.2717 15.7234Z" fill="#FC2204"/>
<path d="M19.7921 5.74848C19.7921 6.51019 19.1744 7.12781 18.4125 7.12781C17.6508 7.12781 17.0332 6.51019 17.0332 5.74848C17.0332 4.98659 17.6508 4.36914 18.4125 4.36914C19.1744 4.36914 19.7921 4.98659 19.7921 5.74848Z" fill="#FC2204"/>
</g>
<defs>
<clipPath id="clip0_1260_30596">
<rect width="23" height="23" fill="white" transform="translate(0.728516 0.388672)"/>
</clipPath>
</defs>
</svg>
