<svg width="28" height="28" viewBox="0 0 28 28" fill="none" xmlns="http://www.w3.org/2000/svg">
<path fill-rule="evenodd" clip-rule="evenodd" d="M23.1822 4.89728C20.8141 2.5264 17.6647 1.22014 14.3095 1.21875C7.39584 1.21875 1.76912 6.84531 1.76634 13.7608C1.76542 15.9715 2.34292 18.1295 3.44061 20.0316L1.66113 26.5312L8.31045 24.787C10.1426 25.7864 12.2053 26.3131 14.3044 26.3137H14.3097C21.2225 26.3137 26.8499 20.6867 26.8525 13.7709C26.8539 10.4192 25.5504 7.26801 23.1822 4.89728ZM14.3095 24.1954H14.3052C12.4345 24.1947 10.5999 23.6919 8.99904 22.7423L8.61852 22.5162L4.67271 23.5513L5.7259 19.7043L5.47794 19.3098C4.43432 17.6499 3.88324 15.7314 3.88416 13.7616C3.88633 8.0136 8.56321 3.33719 14.3137 3.33719C17.0983 3.33812 19.7159 4.42391 21.6842 6.39449C23.6524 8.36508 24.7358 10.9844 24.7348 13.7701C24.7324 19.5186 20.0558 24.1954 14.3095 24.1954V24.1954ZM20.028 16.3874C19.7147 16.2304 18.1737 15.4725 17.8864 15.3677C17.5993 15.2631 17.3901 15.2111 17.1814 15.5247C16.9724 15.8383 16.3719 16.5444 16.1889 16.7534C16.006 16.9626 15.8234 16.9889 15.5099 16.8319C15.1965 16.6751 14.1867 16.344 12.9895 15.2763C12.0579 14.4452 11.4289 13.4189 11.246 13.1053C11.0634 12.7914 11.2445 12.6381 11.3835 12.4657C11.7228 12.0444 12.0625 11.6027 12.167 11.3937C12.2716 11.1845 12.2192 11.0014 12.1407 10.8446C12.0625 10.6878 11.4357 9.14513 11.1746 8.51741C10.92 7.90654 10.6619 7.98904 10.4694 7.97946C10.2868 7.97035 10.0777 7.96849 9.86869 7.96849C9.65981 7.96849 9.32023 8.04682 9.03287 8.36076C8.74567 8.67454 7.93611 9.43264 7.93611 10.9753C7.93611 12.5179 9.05914 14.0082 9.21579 14.2174C9.37245 14.4265 11.4258 17.5922 14.5697 18.9495C15.3174 19.2728 15.9011 19.4654 16.3564 19.6099C17.1073 19.8484 17.7903 19.8147 18.3304 19.7341C18.9326 19.644 20.1845 18.9758 20.4459 18.2438C20.707 17.5117 20.707 16.8843 20.6285 16.7534C20.5503 16.6227 20.3413 16.5444 20.028 16.3874V16.3874Z" fill="#FC2204"/>
</svg>
