<svg width="366" height="106" viewBox="0 0 366 106" fill="none" xmlns="http://www.w3.org/2000/svg">
<path d="M19.0366 31.8841L62.0008 77.56L85.3406 102.383V3.94141H43.819V22.741L25.5583 3.94141H15.5583L43.819 33.1874L68.1667 59.0961V11.09H78.1864V84.3334L50.0048 54.3765L26.9219 29.8304L8.75996 10.5173L2.57422 3.94141V102.402H44.0957V83.6225L62.3565 102.402H72.3564L44.0957 73.1761L19.7678 47.2871V95.234H9.72833V22.0103L19.0366 31.8841ZM61.0126 41.0272L50.9929 30.3635V11.09H61.0126V41.0272ZM26.9219 65.3561L36.9416 76.0197V95.2538H26.9219V65.3561Z" fill="#FC2204"/>
<path d="M133.19 4.52327H146.033V56.0576H133.992L122.514 29.0061V56.0576H109.67V4.52327H121.711L133.19 32.0564V4.52327ZM187.149 4.52327V14.5572H177.195V56.0576H163.147V14.5572H153.274V4.52327H187.149ZM263.233 4.52327H277.12L266.203 56.0576H250.068L244.369 25.3136L238.67 56.0576H222.535L211.618 4.52327H226.228L230.562 39.2006L237.466 4.52327H251.192L258.095 39.2006L263.233 4.52327ZM298.788 46.0237H316.368V56.0576H284.741V4.52327H315.645V14.5572H298.788V25.0728H313.317V35.1067H298.788V46.0237ZM346.005 23.8687V15.5205C346.005 14.3432 345.336 13.7545 343.999 13.7545H338.219V25.6347H343.999C345.336 25.6347 346.005 25.046 346.005 23.8687ZM346.005 45.0604V36.6319C346.005 35.4546 345.336 34.8659 343.999 34.8659H338.219V46.8264H343.999C345.336 46.8264 346.005 46.2377 346.005 45.0604ZM324.412 4.52327H348.012C355.879 4.52327 359.812 7.84116 359.812 14.4769V21.0592C359.812 25.715 358.528 28.7385 355.959 30.1299C357.457 30.7721 358.474 31.7621 359.009 33.0999C359.545 34.3843 359.812 36.1503 359.812 38.3979V46.1039C359.812 52.7397 355.879 56.0576 348.012 56.0576H324.412V4.52327Z" fill="white"/>
<path d="M110.935 72.3933H117.802C119.755 72.3933 120.731 73.3173 120.731 75.1653V89.3403C120.731 91.1883 119.755 92.1123 117.802 92.1123H110.935V72.3933ZM117.865 88.9623V75.5433C117.865 75.1653 117.802 74.9238 117.676 74.8188C117.55 74.6928 117.298 74.6298 116.92 74.6298H113.801V89.8758H116.92C117.298 89.8758 117.55 89.8233 117.676 89.7183C117.802 89.5923 117.865 89.3403 117.865 88.9623ZM126.72 89.8128H132.421V92.1123H123.853V72.3933H132.201V74.6928H126.72V80.7723H131.256V83.0718H126.72V89.8128ZM140.32 88.8993V84.0798C140.32 83.7018 140.257 83.4603 140.131 83.3553C140.026 83.2293 139.785 83.1663 139.407 83.1663H137.076C135.165 83.1663 134.209 82.2318 134.209 80.3628V75.1653C134.209 73.3173 135.186 72.3933 137.139 72.3933H140.226C142.179 72.3933 143.155 73.3173 143.155 75.1653V78.0633H140.289V75.6063C140.289 75.2283 140.226 74.9868 140.1 74.8818C139.974 74.7558 139.722 74.6928 139.344 74.6928H138.021C137.643 74.6928 137.391 74.7558 137.265 74.8818C137.139 74.9868 137.076 75.2283 137.076 75.6063V79.9848C137.076 80.3628 137.139 80.6148 137.265 80.7408C137.391 80.8458 137.643 80.8983 138.021 80.8983H140.32C142.252 80.8983 143.218 81.8223 143.218 83.6703V89.3403C143.218 91.1883 142.231 92.1123 140.257 92.1123H137.202C135.249 92.1123 134.272 91.1883 134.272 89.3403V86.4423H137.139V88.8993C137.139 89.2773 137.202 89.5293 137.328 89.6553C137.454 89.7603 137.706 89.8128 138.084 89.8128H139.407C139.785 89.8128 140.026 89.7603 140.131 89.6553C140.257 89.5293 140.32 89.2773 140.32 88.8993ZM146.284 72.3933H149.119V92.1123H146.284V72.3933ZM161.718 78.1578H158.852V75.5433C158.852 75.1653 158.789 74.9238 158.663 74.8188C158.537 74.6928 158.285 74.6298 157.907 74.6298H156.3C155.922 74.6298 155.67 74.6928 155.544 74.8188C155.418 74.9238 155.355 75.1653 155.355 75.5433V88.9938C155.355 89.3718 155.418 89.6238 155.544 89.7498C155.67 89.8548 155.922 89.9073 156.3 89.9073H157.907C158.285 89.9073 158.537 89.8548 158.663 89.7498C158.789 89.6238 158.852 89.3718 158.852 88.9938V84.1743H157.277V81.9693H161.718V89.3403C161.718 91.2093 160.742 92.1438 158.789 92.1438H155.418C153.465 92.1438 152.489 91.2093 152.489 89.3403V75.1653C152.489 73.3173 153.465 72.3933 155.418 72.3933H158.789C160.742 72.3933 161.718 73.3173 161.718 75.1653V78.1578ZM171.698 72.3933H174.313V92.1123H171.446L167.288 77.8743V92.1123H164.674V72.3933H167.666L171.698 86.2218V72.3933ZM191.187 92.1123H184.635C182.682 92.1123 181.705 91.1883 181.705 89.3403V86.0643C181.705 85.3713 181.842 84.8148 182.115 84.3948C182.388 83.9538 182.892 83.5023 183.627 83.0403L184.572 82.3473C184.068 81.7173 183.7 81.2448 183.469 80.9298C183.238 80.6148 183.007 80.1948 182.776 79.6698C182.545 79.1448 182.43 78.6513 182.43 78.1893V75.1653C182.43 73.3173 183.417 72.3933 185.391 72.3933H188.446C190.378 72.3933 191.344 73.3173 191.344 75.1653V78.0948C191.344 79.1658 191.155 80.0163 190.777 80.6463C190.399 81.2553 189.79 81.8328 188.95 82.3788L188.226 82.8513L191.848 87.2928V84.8673H194.148V89.3403C194.148 89.5083 194.127 89.7393 194.085 90.0333L196.699 93.2148H193.675L192.573 91.8918C192.216 92.0388 191.754 92.1123 191.187 92.1123ZM185.265 75.5118V78.3783C185.265 79.0293 185.706 79.8693 186.588 80.8983L186.777 80.7408C187.449 80.2998 187.911 79.9008 188.163 79.5438C188.436 79.1868 188.572 78.7038 188.572 78.0948V75.5118C188.572 75.1338 188.509 74.8923 188.383 74.7873C188.257 74.6613 188.005 74.5983 187.627 74.5983H186.178C185.8 74.5983 185.548 74.6613 185.422 74.7873C185.317 74.8923 185.265 75.1338 185.265 75.5118ZM185.422 89.8758H190.872L186.178 84.2373L185.422 84.7413C185.065 84.9723 184.813 85.2138 184.666 85.4658C184.54 85.6968 184.477 86.0538 184.477 86.5368V88.9623C184.477 89.3403 184.54 89.5923 184.666 89.7183C184.792 89.8233 185.044 89.8758 185.422 89.8758ZM201.219 72.3933H207.676C209.629 72.3933 210.606 73.3173 210.606 75.1653V81.7173C210.606 83.5653 209.629 84.4893 207.676 84.4893H204.054V92.1123H201.219V72.3933ZM207.771 81.2763V75.6063C207.771 75.2283 207.708 74.9868 207.582 74.8818C207.456 74.7558 207.204 74.6928 206.826 74.6928H204.054V82.2213H206.826C207.204 82.2213 207.456 82.1583 207.582 82.0323C207.708 81.9063 207.771 81.6543 207.771 81.2763ZM215.927 72.3933H219.424C221.377 72.3933 222.353 73.3173 222.353 75.1653V89.3403C222.353 91.1883 221.377 92.1123 219.424 92.1123H215.927C213.953 92.1123 212.966 91.1883 212.966 89.3403V75.1653C212.966 73.3173 213.953 72.3933 215.927 72.3933ZM219.518 88.8993V75.6063C219.518 75.2283 219.455 74.9868 219.329 74.8818C219.203 74.7558 218.951 74.6928 218.573 74.6928H216.746C216.368 74.6928 216.116 74.7558 215.99 74.8818C215.885 74.9868 215.833 75.2283 215.833 75.6063V88.8993C215.833 89.2773 215.885 89.5293 215.99 89.6553C216.116 89.7603 216.368 89.8128 216.746 89.8128H218.573C218.951 89.8128 219.203 89.7603 219.329 89.6553C219.455 89.5293 219.518 89.2773 219.518 88.8993ZM231.16 88.8993V84.0798C231.16 83.7018 231.097 83.4603 230.971 83.3553C230.866 83.2293 230.624 83.1663 230.246 83.1663H227.915C226.004 83.1663 225.049 82.2318 225.049 80.3628V75.1653C225.049 73.3173 226.025 72.3933 227.978 72.3933H231.065C233.018 72.3933 233.995 73.3173 233.995 75.1653V78.0633H231.128V75.6063C231.128 75.2283 231.065 74.9868 230.939 74.8818C230.813 74.7558 230.561 74.6928 230.183 74.6928H228.86C228.482 74.6928 228.23 74.7558 228.104 74.8818C227.978 74.9868 227.915 75.2283 227.915 75.6063V79.9848C227.915 80.3628 227.978 80.6148 228.104 80.7408C228.23 80.8458 228.482 80.8983 228.86 80.8983H231.16C233.092 80.8983 234.058 81.8223 234.058 83.6703V89.3403C234.058 91.1883 233.071 92.1123 231.097 92.1123H228.041C226.088 92.1123 225.112 91.1883 225.112 89.3403V86.4423H227.978V88.8993C227.978 89.2773 228.041 89.5293 228.167 89.6553C228.293 89.7603 228.545 89.8128 228.923 89.8128H230.246C230.624 89.8128 230.866 89.7603 230.971 89.6553C231.097 89.5293 231.16 89.2773 231.16 88.8993ZM237.124 72.3933H239.959V92.1123H237.124V72.3933ZM252.557 78.5673H249.659V75.5433C249.659 75.1653 249.596 74.9238 249.47 74.8188C249.365 74.6928 249.124 74.6298 248.746 74.6298H247.139C246.761 74.6298 246.509 74.6928 246.383 74.8188C246.257 74.9238 246.194 75.1653 246.194 75.5433V88.9938C246.194 89.3718 246.257 89.6238 246.383 89.7498C246.509 89.8548 246.761 89.9073 247.139 89.9073H248.746C249.124 89.9073 249.365 89.8548 249.47 89.7498C249.596 89.6238 249.659 89.3718 249.659 88.9938V86.0013H252.557V89.3403C252.557 91.2093 251.57 92.1438 249.596 92.1438H246.257C244.304 92.1438 243.328 91.2093 243.328 89.3403V75.1653C243.328 73.3173 244.304 72.3933 246.257 72.3933H249.596C251.57 72.3933 252.557 73.3173 252.557 75.1653V78.5673ZM255.611 72.3933H258.446V92.1123H255.611V72.3933ZM264.777 72.3933H268.273C270.226 72.3933 271.203 73.3173 271.203 75.1653V89.3403C271.203 91.1883 270.226 92.1123 268.273 92.1123H264.777C262.803 92.1123 261.816 91.1883 261.816 89.3403V75.1653C261.816 73.3173 262.803 72.3933 264.777 72.3933ZM268.368 88.8993V75.6063C268.368 75.2283 268.305 74.9868 268.179 74.8818C268.053 74.7558 267.801 74.6928 267.423 74.6928H265.596C265.218 74.6928 264.966 74.7558 264.84 74.8818C264.735 74.9868 264.682 75.2283 264.682 75.6063V88.8993C264.682 89.2773 264.735 89.5293 264.84 89.6553C264.966 89.7603 265.218 89.8128 265.596 89.8128H267.423C267.801 89.8128 268.053 89.7603 268.179 89.6553C268.305 89.5293 268.368 89.2773 268.368 88.8993ZM281.364 72.3933H283.978V92.1123H281.112L276.954 77.8743V92.1123H274.339V72.3933H277.332L281.364 86.2218V72.3933ZM294.504 92.1123L293.717 87.5448H289.559L288.834 92.1123H285.999L289.496 72.3933H293.622L297.371 92.1123H294.504ZM289.905 85.2453H293.339L291.543 74.8503L289.905 85.2453ZM301.868 92.1123H299.379V72.3933H302.498L305.868 84.6153L309.239 72.3933H312.357V92.1123H309.869V77.6853L307.16 87.8283H304.577L301.868 77.7168V92.1123ZM318.488 89.8128H324.19V92.1123H315.622V72.3933H323.969V74.6928H318.488V80.7723H323.024V83.0718H318.488V89.8128ZM333.443 72.3933H336.058V92.1123H333.191L329.033 77.8743V92.1123H326.419V72.3933H329.411L333.443 86.2218V72.3933ZM347.308 72.3933V74.6928H344.001V92.1123H341.166V74.6928H337.858V72.3933H347.308ZM351.894 72.3933H355.39C357.343 72.3933 358.32 73.3173 358.32 75.1653V89.3403C358.32 91.1883 357.343 92.1123 355.39 92.1123H351.894C349.92 92.1123 348.933 91.1883 348.933 89.3403V75.1653C348.933 73.3173 349.92 72.3933 351.894 72.3933ZM355.485 88.8993V75.6063C355.485 75.2283 355.422 74.9868 355.296 74.8818C355.17 74.7558 354.918 74.6928 354.54 74.6928H352.713C352.335 74.6928 352.083 74.7558 351.957 74.8818C351.852 74.9868 351.799 75.2283 351.799 75.6063V88.8993C351.799 89.2773 351.852 89.5293 351.957 89.6553C352.083 89.7603 352.335 89.8128 352.713 89.8128H354.54C354.918 89.8128 355.17 89.7603 355.296 89.6553C355.422 89.5293 355.485 89.2773 355.485 88.8993Z" fill="white"/>
</svg>
